<svg width="24" height="24" viewBox="0 0 24 24" fill="none" xmlns="http://www.w3.org/2000/svg">
<path fill-rule="evenodd" clip-rule="evenodd" d="M5 5.5C4.17157 5.5 3.5 6.17157 3.5 7V19C3.5 19.8284 4.17157 20.5 5 20.5H17C17.8284 20.5 18.5 19.8284 18.5 19V13.9444C18.5 13.3922 18.9477 12.9444 19.5 12.9444C20.0523 12.9444 20.5 13.3922 20.5 13.9444V19C20.5 20.933 18.933 22.5 17 22.5H5C3.067 22.5 1.5 20.933 1.5 19V7C1.5 5.067 3.067 3.5 5 3.5H10C10.5523 3.5 11 3.94772 11 4.5C11 5.05228 10.5523 5.5 10 5.5H5Z" fill="#AAAAAA"/>
<path fill-rule="evenodd" clip-rule="evenodd" d="M13 2.5C13 1.94772 13.4477 1.5 14 1.5H21.5C22.0523 1.5 22.5 1.94772 22.5 2.5V10C22.5 10.5523 22.0523 11 21.5 11C20.9477 11 20.5 10.5523 20.5 10V4.91421L11.2071 14.2071C10.8166 14.5976 10.1834 14.5976 9.79289 14.2071C9.40237 13.8166 9.40237 13.1834 9.79289 12.7929L19.0858 3.5H14C13.4477 3.5 13 3.05228 13 2.5Z" fill="#AAAAAA"/>
</svg>
